# xmcd
# 
# Track frame offsets:
#     150
#     13615
#     27292
#     44950
#     58462
#     72910
#     86742
#     102077
#     116872
#     131485
# 
# Disc length: 1953
# 
# Revision: 0
# Processed by: cddbd v1.5.2PL0 Copyright (c) Steve Scherf et al.
# Submitted via: fre:ac v1.0.17
# 
DISCID=93079f0a
DTITLE=Mid South  - Shoulder To Shoulder
DYEAR=1991
DGENRE=Country
TTITLE0=Tabernacle
TTITLE1=Take Him At His Word
TTITLE2=Folks Like Us
TTITLE3=Heart Collector
TTITLE4=Rest Assured
TTITLE5=I Can't Help Myself
TTITLE6=Walking In Step
TTITLE7=My Father Knows Best
TTITLE8=Go Tell The People
TTITLE9=It's Only The First Time
EXTD=
EXTT0=
EXTT1=
EXTT2=
EXTT3=
EXTT4=
EXTT5=
EXTT6=
EXTT7=
EXTT8=
EXTT9=
PLAYORDER=
